<mxfile host="app.diagrams.net" modified="2023-11-06T09:57:08.641Z" agent="Mozilla/5.0 (Windows NT 10.0; Win64; x64) AppleWebKit/537.36 (KHTML, like Gecko) Chrome/118.0.0.0 Safari/537.36" version="22.0.8" etag="rx3cWefJs37gfXg_etBS" type="github">
  <diagram name="Page-1" id="hQsd6_jHzTFfWlwIB3lt">
    <mxGraphModel>
      <root>
        <mxCell id="0" />
        <mxCell id="1" parent="0" />
      </root>
    </mxGraphModel>
  </diagram>
</mxfile>
